<svg width="61" height="60" viewBox="0 0 61 60" fill="none" xmlns="http://www.w3.org/2000/svg">
<path d="M29.9902 56.0077C44.4949 56.0077 56.2533 44.2493 56.2533 29.7445C56.2533 15.2398 44.4949 3.48145 29.9902 3.48145C15.4854 3.48145 3.72705 15.2398 3.72705 29.7445C3.72705 44.2493 15.4854 56.0077 29.9902 56.0077Z" fill="white"/>
<path d="M29.9901 30.9953C35.5157 30.9953 39.9951 26.516 39.9951 20.9904C39.9951 15.4648 35.5157 10.9854 29.9901 10.9854C24.4645 10.9854 19.9851 15.4648 19.9851 20.9904C19.9851 26.516 24.4645 30.9953 29.9901 30.9953Z" fill="#0062AD"/>
<path fill-rule="evenodd" clip-rule="evenodd" d="M50.405 47.6589C45.9403 51.1657 36.5068 56.4133 30.395 56.4133C24.2832 56.4133 14.8497 51.1657 10.385 47.6589C11.2892 39.5636 21.9708 36.4033 30.395 36.4033C38.8192 36.4033 49.5008 39.5636 50.405 47.6589Z" fill="#0062AD"/>
<path d="M4.2401 36.2595C4.93038 36.2595 5.48997 35.6999 5.48997 35.0097C5.48997 34.3194 4.93038 33.7598 4.2401 33.7598C3.54982 33.7598 2.99023 34.3194 2.99023 35.0097C2.99023 35.6999 3.54982 36.2595 4.2401 36.2595Z" fill="#0062AD"/>
<path fill-rule="evenodd" clip-rule="evenodd" d="M8.68427 47.0429C6.83709 44.6742 5.37008 41.9967 4.37334 39.1002C4.14822 38.4474 4.49589 37.7358 5.14872 37.5107C5.80029 37.2868 6.51314 37.6332 6.73826 38.286C7.47738 40.4346 8.50169 42.4506 9.76482 44.289C14.8323 38.6825 22.181 35.152 30.3951 35.152C38.6092 35.152 45.9578 38.6825 51.0254 44.289C53.7892 40.2658 55.4076 35.3959 55.4076 30.1495C55.4076 25.9386 54.3645 21.9691 52.5236 18.4861C52.2009 17.8758 52.4349 17.118 53.0452 16.7953C53.6555 16.4739 54.4121 16.7065 54.7347 17.3168C56.7607 21.1487 57.9088 25.5159 57.9088 30.1495C57.9088 36.5177 55.7415 42.3831 52.1034 47.0467C52.0909 47.0642 52.0772 47.0817 52.0634 47.098C47.0259 53.5287 39.1895 57.6632 30.3951 57.6632C21.6019 57.6632 13.7681 53.5299 8.7293 47.1017C8.71429 47.0829 8.69802 47.0629 8.68427 47.0429ZM49.4771 46.3138C44.8586 41.0112 38.0389 37.6532 30.3951 37.6532C22.7513 37.6532 15.9316 41.0112 11.313 46.3138C15.9028 51.7253 22.7513 55.162 30.3951 55.162C38.0389 55.162 44.8873 51.7253 49.4771 46.3138ZM5.41008 31.3413C5.44259 32.0304 4.90987 32.617 4.21953 32.6495C3.53043 32.682 2.94391 32.148 2.91264 31.4589C2.89138 31.0249 2.88135 30.5885 2.88135 30.1495C2.88135 14.9644 15.21 2.63574 30.3951 2.63574C39.5484 2.63574 47.665 7.11549 52.6675 14.0002C53.0727 14.5592 52.9489 15.3421 52.3911 15.7473C51.8321 16.1525 51.0491 16.0287 50.6439 15.4709C46.0954 9.21028 38.718 5.13699 30.3951 5.13699C16.5907 5.13699 5.3826 16.3451 5.3826 30.1495C5.3826 30.5484 5.39257 30.9461 5.41008 31.3413ZM30.3951 10.1395C36.6069 10.1395 41.6507 15.1833 41.6507 21.3951C41.6507 27.607 36.6069 32.6507 30.3951 32.6507C24.1832 32.6507 19.1395 27.607 19.1395 21.3951C19.1395 15.1833 24.1832 10.1395 30.3951 10.1395ZM30.3951 12.6407C25.5639 12.6407 21.6407 16.5639 21.6407 21.3951C21.6407 26.2263 25.5639 30.1495 30.3951 30.1495C35.2262 30.1495 39.1495 26.2263 39.1495 21.3951C39.1495 16.5639 35.2262 12.6407 30.3951 12.6407Z" fill="#0062AD"/>
</svg>
