<svg width="24" height="24" viewBox="0 0 24 24" fill="none" xmlns="http://www.w3.org/2000/svg">
<path d="M20.8144 10.662C20.8179 11.8352 20.5095 12.9926 19.9144 14.0398C19.2089 15.2947 18.1242 16.3502 16.7819 17.088C15.4396 17.8259 13.8927 18.217 12.3144 18.2176C10.9946 18.2206 9.69256 17.9465 8.51444 17.4176L2.81445 19.1064L4.71445 14.0398C4.11938 12.9926 3.81101 11.8352 3.81445 10.662C3.81506 9.25913 4.25506 7.88411 5.08517 6.69095C5.91527 5.4978 7.1027 4.53364 8.51444 3.90647C9.69256 3.37752 10.9946 3.10341 12.3144 3.10647H12.8144C14.8988 3.20869 16.8675 3.9907 18.3436 5.30279C19.8197 6.61487 20.6994 8.36482 20.8144 10.2176V10.662Z" stroke="#26488C" stroke-width="2" stroke-linecap="round" stroke-linejoin="round"/>
<path d="M8.84684 12.1064C8.55018 12.1064 8.30098 12.0129 8.09925 11.8257C7.90939 11.6269 7.81445 11.3871 7.81445 11.1064C7.81445 10.8257 7.90939 10.5918 8.09925 10.4047C8.30098 10.2059 8.55018 10.1064 8.84684 10.1064C9.13163 10.1064 9.36897 10.2059 9.55883 10.4047C9.76056 10.5918 9.86142 10.8257 9.86142 11.1064C9.86142 11.3871 9.76056 11.6269 9.55883 11.8257C9.36897 12.0129 9.13163 12.1064 8.84684 12.1064Z" fill="#26488C"/>
<path d="M12.3234 12.1064C12.0267 12.1064 11.7775 12.0129 11.5758 11.8257C11.3859 11.6269 11.291 11.3871 11.291 11.1064C11.291 10.8257 11.3859 10.5918 11.5758 10.4047C11.7775 10.2059 12.0267 10.1064 12.3234 10.1064C12.6081 10.1064 12.8455 10.2059 13.0353 10.4047C13.2371 10.5918 13.3379 10.8257 13.3379 11.1064C13.3379 11.3871 13.2371 11.6269 13.0353 11.8257C12.8455 12.0129 12.6081 12.1064 12.3234 12.1064Z" fill="#26488C"/>
<path d="M15.7999 12.1064C15.5032 12.1064 15.254 12.0129 15.0523 11.8257C14.8624 11.6269 14.7675 11.3871 14.7675 11.1064C14.7675 10.8257 14.8624 10.5918 15.0523 10.4047C15.254 10.2059 15.5032 10.1064 15.7999 10.1064C16.0847 10.1064 16.322 10.2059 16.5119 10.4047C16.7136 10.5918 16.8145 10.8257 16.8145 11.1064C16.8145 11.3871 16.7136 11.6269 16.5119 11.8257C16.322 12.0129 16.0847 12.1064 15.7999 12.1064Z" fill="#26488C"/>
</svg>
