<svg width="14" height="14" viewBox="0 0 14 14" fill="none" xmlns="http://www.w3.org/2000/svg">
<path d="M1 7C1 4.54058 1 3.31087 1.61036 2.43918C1.83617 2.11668 2.11668 1.83617 2.43918 1.61036C3.31087 1 4.54058 1 7 1C9.4594 1 10.6891 1 11.5608 1.61036C11.8833 1.83617 12.1638 2.11668 12.3896 2.43918C13 3.31087 13 4.54058 13 7C13 9.4594 13 10.6891 12.3896 11.5608C12.1638 11.8833 11.8833 12.1638 11.5608 12.3896C10.6891 13 9.4594 13 7 13C4.54058 13 3.31087 13 2.43918 12.3896C2.11668 12.1638 1.83617 11.8833 1.61036 11.5608C1 10.6891 1 9.4594 1 7Z" stroke="#408BFC" stroke-width="1.5"/>
</svg>
