<svg width="24" height="24" viewBox="0 0 24 24" fill="none" xmlns="http://www.w3.org/2000/svg">
<rect x="0.5" y="0.5" width="23" height="23" rx="11.5" stroke="white" stroke-opacity="0.8"/>
<path d="M12.5 10.5H14.75L14.5 11.5H12.5V16H11.5V11.5H9.5V10.5H11.5V9.56388C11.5 8.67236 11.5928 8.34908 11.7671 8.02315C11.9414 7.69723 12.1972 7.44144 12.5231 7.26714C12.8491 7.09283 13.1723 7 14.0639 7C14.3249 7 14.5536 7.025 14.75 7.075V8H14.0639C13.4021 8 13.2005 8.03892 12.9948 8.14895C12.8431 8.23006 12.7301 8.3431 12.649 8.49476C12.5389 8.70048 12.5 8.90203 12.5 9.56388V10.5Z" fill="white" fill-opacity="0.8"/>
</svg>
