<svg width="24" height="24" viewBox="0 0 24 24" fill="none" xmlns="http://www.w3.org/2000/svg">
<rect x="0.5" y="0.5" width="23" height="23" rx="11.5" stroke="white" stroke-opacity="0.8"/>
<path d="M12.0005 10.5C11.1718 10.5 10.5005 11.1715 10.5005 12C10.5005 12.8286 11.172 13.5 12.0005 13.5C12.8291 13.5 13.5005 12.8284 13.5005 12C13.5005 11.1713 12.8289 10.5 12.0005 10.5ZM12.0005 9.5C13.3807 9.5 14.5005 10.6185 14.5005 12C14.5005 13.3802 13.3819 14.5 12.0005 14.5C10.6203 14.5 9.50049 13.3814 9.50049 12C9.50049 10.6198 10.619 9.5 12.0005 9.5ZM15.2505 9.37457C15.2505 9.71963 14.9701 9.99958 14.6255 9.99958C14.2804 9.99958 14.0005 9.7192 14.0005 9.37457C14.0005 9.02995 14.2808 8.75 14.6255 8.75C14.9696 8.74956 15.2505 9.02995 15.2505 9.37457ZM12.0005 8C10.7632 8 10.5616 8.00327 9.98613 8.0289C9.59407 8.0473 9.33126 8.10003 9.08708 8.19483C8.87008 8.27899 8.71354 8.37949 8.54676 8.54627C8.37933 8.7137 8.27902 8.86981 8.1952 9.08691C8.10018 9.33166 8.04746 9.59405 8.02939 9.98557C8.00351 10.5376 8.00049 10.7305 8.00049 12C8.00049 13.2372 8.00376 13.4389 8.02938 14.0143C8.0478 14.4062 8.1006 14.6694 8.19517 14.913C8.27955 15.1303 8.38025 15.2872 8.54623 15.4532C8.71431 15.621 8.87089 15.7217 9.08593 15.8047C9.33309 15.9002 9.59574 15.953 9.98606 15.9711C10.5381 15.9969 10.731 16 12.0005 16C13.2377 16 13.4394 15.9967 14.0148 15.9711C14.4058 15.9527 14.6692 15.8998 14.9135 15.8053C15.1302 15.7211 15.2876 15.6201 15.4537 15.4542C15.6218 15.2859 15.7222 15.1297 15.8053 14.9141C15.9006 14.6679 15.9535 14.4049 15.9716 14.0144C15.9974 13.4624 16.0005 13.2694 16.0005 12C16.0005 10.7628 15.9972 10.5611 15.9716 9.98568C15.9532 9.59453 15.9002 9.33074 15.8056 9.08659C15.7217 8.87019 15.6208 8.71317 15.4542 8.54627C15.2865 8.37857 15.1308 8.27846 14.9135 8.19471C14.669 8.09977 14.4062 8.04698 14.0149 8.0289C13.4629 8.00302 13.2699 8 12.0005 8ZM12.0005 7C13.3588 7 13.5284 7.005 14.0617 7.03C14.5938 7.05458 14.9567 7.13875 15.2755 7.2625C15.605 7.38958 15.8834 7.56125 16.1613 7.83916C16.4388 8.11708 16.6105 8.39625 16.738 8.725C16.8613 9.04333 16.9455 9.40666 16.9705 9.93875C16.9942 10.4721 17.0005 10.6417 17.0005 12C17.0005 13.3583 16.9955 13.5279 16.9705 14.0612C16.9459 14.5933 16.8613 14.9562 16.738 15.275C16.6109 15.6046 16.4388 15.8829 16.1613 16.1608C15.8834 16.4383 15.6038 16.61 15.2755 16.7375C14.9567 16.8608 14.5938 16.945 14.0617 16.97C13.5284 16.9937 13.3588 17 12.0005 17C10.6422 17 10.4726 16.995 9.93924 16.97C9.40715 16.9454 9.04465 16.8608 8.72549 16.7375C8.39632 16.6104 8.11757 16.4383 7.83965 16.1608C7.56174 15.8829 7.39049 15.6033 7.26299 15.275C7.13924 14.9562 7.05549 14.5933 7.03049 14.0612C7.00674 13.5279 7.00049 13.3583 7.00049 12C7.00049 10.6417 7.00549 10.4721 7.03049 9.93875C7.05507 9.40625 7.13924 9.04375 7.26299 8.725C7.39007 8.39583 7.56174 8.11708 7.83965 7.83916C8.11757 7.56125 8.39674 7.39 8.72549 7.2625C9.04424 7.13875 9.40674 7.055 9.93924 7.03C10.4726 7.00625 10.6422 7 12.0005 7Z" fill="white" fill-opacity="0.8"/>
</svg>
