<svg width="20" height="20" viewBox="0 0 20 20" fill="none" xmlns="http://www.w3.org/2000/svg">
<path d="M10 0.5C15.2467 0.5 19.5 4.7533 19.5 10C19.5 15.2467 15.2467 19.5 10 19.5C4.7533 19.5 0.5 15.2467 0.5 10C0.5 4.7533 4.7533 0.5 10 0.5Z" stroke="white" stroke-opacity="0.8"/>
<g clip-path="url(#clip0_4_144)">
<path d="M10 14.0793L12.2686 11.8106C13.5216 10.5577 13.5216 8.52629 12.2686 7.27336C11.0157 6.02042 8.9843 6.02042 7.73136 7.27336C6.47843 8.52629 6.47843 10.5577 7.73136 11.8106L10 14.0793ZM10 15.3756L7.08318 12.4588C5.47227 10.8479 5.47227 8.23609 7.08318 6.62518C8.6941 5.01426 11.3059 5.01426 12.9168 6.62518C14.5277 8.23609 14.5277 10.8479 12.9168 12.4588L10 15.3756ZM10 10.4587C10.5063 10.4587 10.9167 10.0483 10.9167 9.54199C10.9167 9.03573 10.5063 8.62533 10 8.62533C9.49373 8.62533 9.08333 9.03573 9.08333 9.54199C9.08333 10.0483 9.49373 10.4587 10 10.4587ZM10 11.3753C8.98748 11.3753 8.16667 10.5545 8.16667 9.54199C8.16667 8.52947 8.98748 7.70866 10 7.70866C11.0125 7.70866 11.8333 8.52947 11.8333 9.54199C11.8333 10.5545 11.0125 11.3753 10 11.3753Z" fill="#CCCCCC"/>
</g>
<defs>
<clipPath id="clip0_4_144">
<rect width="11" height="11" fill="white" transform="translate(4.5 4.5)"/>
</clipPath>
</defs>
</svg>
