<svg width="61" height="60" viewBox="0 0 61 60" fill="none" xmlns="http://www.w3.org/2000/svg">
<path fill-rule="evenodd" clip-rule="evenodd" d="M26.6195 48.2906C16.1292 46.5147 8.12769 37.3738 8.12769 26.3796C8.12769 14.1147 18.0852 4.15723 30.35 4.15723C42.6149 4.15723 52.5724 14.1147 52.5724 26.3796C52.5724 37.3738 44.5709 46.5147 34.0806 48.2906L30.35 56.6835L26.6195 48.2906ZM30.35 18.2993C34.8098 18.2993 38.4315 21.9199 38.4315 26.3796C38.4315 30.8393 34.8098 34.4612 30.35 34.4612C25.8903 34.4612 22.2685 30.8393 22.2685 26.3796C22.2685 21.9199 25.8903 18.2993 30.35 18.2993Z" fill="#0062AD"/>
<path fill-rule="evenodd" clip-rule="evenodd" d="M35.9025 22.2522C36.7096 23.3738 37.1858 24.7504 37.1858 26.2373C37.1858 30.0086 34.1231 33.0714 30.3518 33.0714C26.5805 33.0714 23.5178 30.0086 23.5178 26.2373C23.5178 22.4661 26.5805 19.4033 30.3518 19.4033C31.4587 19.4033 32.5046 19.6672 33.4293 20.1354C34.0452 20.447 34.7993 20.2 35.1109 19.5834C35.4226 18.9675 35.1756 18.2141 34.559 17.9024C33.2948 17.2623 31.8652 16.9014 30.3518 16.9014C25.1987 16.9014 21.0158 21.0843 21.0158 26.2373C21.0158 31.3904 25.1987 35.5733 30.3518 35.5733C35.5049 35.5733 39.6878 31.3904 39.6878 26.2373C39.6878 24.2051 39.0373 22.3235 37.9333 20.7903C37.5298 20.2294 36.747 20.1023 36.187 20.5058C35.6262 20.9093 35.499 21.6914 35.9025 22.2522Z" fill="#0062AD"/>
<path fill-rule="evenodd" clip-rule="evenodd" d="M12.3878 37.2516C10.32 34.0024 9.1225 30.1474 9.1225 26.0158C9.1225 14.4468 18.5166 5.05267 30.0856 5.05267C41.6546 5.05267 51.0488 14.4468 51.0488 26.0158C51.0488 36.3873 43.5024 45.01 33.6054 46.6841C33.1935 46.7547 32.8421 47.0254 32.6725 47.409L30.0856 53.2289L27.4988 47.409C27.3292 47.0254 26.9778 46.7547 26.5658 46.6841C23.2197 46.1186 20.1443 44.7576 17.5373 42.8049C16.986 42.3909 16.2004 42.504 15.7865 43.0552C15.3745 43.6086 15.4856 44.3921 16.0389 44.8061C18.7832 46.8618 21.994 48.3319 25.4835 49.0265C25.4815 49.0265 28.9427 56.8133 28.9427 56.8133C29.1446 57.2656 29.5909 57.5564 30.0856 57.5564C30.5804 57.5564 31.0267 57.2656 31.2286 56.8133L34.6898 49.0265C45.4369 46.886 53.5487 37.3909 53.5487 26.0158C53.5487 13.0655 43.0359 2.55273 30.0856 2.55273C17.1354 2.55273 6.62256 13.0655 6.62256 26.0158C6.62256 30.6422 7.96539 34.9576 10.2796 38.5945C10.6511 39.1761 11.4246 39.3477 12.0062 38.9782C12.5877 38.6066 12.7594 37.8332 12.3878 37.2516Z" fill="#0062AD"/>
<path d="M13.7787 42.3469C14.4694 42.3469 15.0293 41.787 15.0293 41.0963C15.0293 40.4056 14.4694 39.8457 13.7787 39.8457C13.088 39.8457 12.5281 40.4056 12.5281 41.0963C12.5281 41.787 13.088 42.3469 13.7787 42.3469Z" fill="#0062AD"/>
</svg>
