<svg width="182" height="53" viewBox="0 0 182 53" fill="none" xmlns="http://www.w3.org/2000/svg">
<path fill-rule="evenodd" clip-rule="evenodd" d="M132.333 0.925781C138.452 0.925781 143.413 3.61156 143.413 6.92446L145.952 43.2121C145.945 43.1658 145.938 43.1196 145.93 43.0734C145.977 43.3467 146 43.6242 146 43.9049C146 48.4163 139.881 52.0735 132.333 52.0735C124.784 52.0735 118.665 48.4163 118.665 43.9049C118.665 43.624 118.689 43.3467 118.735 43.0733C118.727 43.1194 118.72 43.1658 118.713 43.2121L121.252 6.92446C121.252 3.61156 126.213 0.925781 132.332 0.925781H132.333ZM143.409 7.08251C143.407 7.13134 143.403 7.18017 143.399 7.2287C143.404 7.18017 143.407 7.13149 143.409 7.08251ZM143.398 7.23714C143.394 7.28612 143.388 7.3351 143.381 7.38378C143.388 7.3351 143.394 7.28627 143.398 7.23714ZM143.381 7.38734C143.374 7.43706 143.365 7.48663 143.356 7.53605C143.366 7.48663 143.374 7.43706 143.381 7.38734ZM143.355 7.54034C143.346 7.58888 143.336 7.63742 143.325 7.68566C143.336 7.63742 143.346 7.58888 143.355 7.54034ZM143.323 7.69158C143.312 7.73952 143.3 7.78717 143.286 7.83467C143.3 7.78717 143.312 7.73937 143.323 7.69158ZM143.285 7.84059C143.271 7.88883 143.256 7.93677 143.241 7.98442C143.256 7.93663 143.271 7.88868 143.285 7.84059ZM143.24 7.98723C143.224 8.03547 143.207 8.08371 143.189 8.13151C143.207 8.08371 143.224 8.03562 143.24 7.98723ZM142.992 8.56834C142.968 8.61421 142.943 8.65994 142.917 8.70522C142.943 8.65979 142.968 8.61421 142.992 8.56834ZM142.912 8.71262C142.887 8.75642 142.861 8.80007 142.834 8.84358C142.861 8.80022 142.887 8.75642 142.912 8.71262ZM142.828 8.85319C142.8 8.89685 142.772 8.94021 142.743 8.98341C142.772 8.94021 142.801 8.89685 142.828 8.85319ZM142.739 8.98948C142.709 9.03432 142.677 9.07886 142.645 9.12325C142.677 9.07886 142.709 9.03432 142.739 8.98948ZM142.539 9.26339C142.506 9.30556 142.472 9.34758 142.438 9.38917C142.472 9.34744 142.506 9.30556 142.539 9.26339ZM142.432 9.39642C142.396 9.43903 142.36 9.48136 142.322 9.52323C142.36 9.48121 142.396 9.43889 142.432 9.39642ZM142.32 9.52619C142.281 9.56911 142.242 9.61173 142.202 9.65405C142.242 9.61173 142.281 9.56911 142.32 9.52619ZM142.199 9.6573C140.363 11.5962 136.634 12.923 132.333 12.923C128.126 12.923 124.467 11.654 122.59 9.78456C122.617 9.8112 122.644 9.83768 122.672 9.86403L120.583 39.7164L120.582 39.7302C120.547 39.7655 120.512 39.8012 120.478 39.837C122.837 37.3864 127.262 35.7361 132.333 35.7361C137.52 35.7361 142.033 37.4633 144.348 40.0082C144.313 39.9702 144.278 39.932 144.242 39.8943L142.132 9.727C142.155 9.70391 142.177 9.68053 142.199 9.65715V9.6573ZM144.354 40.0143C144.405 40.0708 144.455 40.1277 144.504 40.1851C144.455 40.1278 144.405 40.0708 144.354 40.0143ZM144.506 40.1874C144.555 40.2449 144.604 40.3027 144.651 40.361C144.604 40.3027 144.555 40.2449 144.506 40.1874ZM144.654 40.3649C144.701 40.4229 144.746 40.4813 144.791 40.5402C144.746 40.4815 144.701 40.4229 144.654 40.3649ZM144.795 40.5458C144.839 40.6043 144.882 40.6632 144.924 40.7224C144.882 40.6632 144.839 40.6043 144.795 40.5458ZM144.929 40.7289C144.971 40.7881 145.011 40.8477 145.051 40.9075C145.011 40.8476 144.971 40.7881 144.929 40.7289ZM145.053 40.9107C145.093 40.9708 145.131 41.0312 145.168 41.0919C145.131 41.031 145.093 40.9707 145.053 40.9107ZM145.284 41.2885C145.319 41.3502 145.353 41.4122 145.385 41.4745C145.353 41.4121 145.319 41.3501 145.284 41.2885ZM145.387 41.4768C145.419 41.5389 145.45 41.6015 145.48 41.6644C145.45 41.6016 145.419 41.5391 145.387 41.4768ZM145.483 41.6718C145.513 41.7342 145.541 41.7968 145.568 41.8597C145.541 41.7968 145.513 41.7341 145.483 41.6718ZM145.65 42.0599C145.675 42.1246 145.699 42.1894 145.721 42.2545C145.699 42.1894 145.675 42.1244 145.65 42.0599ZM145.843 42.6613C145.86 42.7275 145.875 42.7939 145.89 42.8608C145.875 42.794 145.86 42.7276 145.843 42.6613ZM145.891 42.8667C145.905 42.9328 145.918 42.9993 145.929 43.0659C145.917 42.9993 145.905 42.9328 145.891 42.8667ZM122.588 9.78205C122.546 9.74017 122.505 9.69785 122.465 9.65538C122.505 9.69785 122.546 9.74002 122.588 9.78205ZM122.464 9.65434C122.424 9.61187 122.384 9.56911 122.346 9.5259C122.384 9.56896 122.424 9.61173 122.464 9.65434ZM122.343 9.52309C122.306 9.48062 122.269 9.43785 122.233 9.39494C122.269 9.438 122.306 9.48062 122.343 9.52309ZM122.12 9.25481C122.087 9.21248 122.055 9.16986 122.023 9.1271C122.055 9.16986 122.087 9.21248 122.12 9.25481ZM122.018 9.12014C121.987 9.07723 121.957 9.03402 121.927 8.99067C121.957 9.03402 121.987 9.07723 122.018 9.12014ZM121.922 8.98327C121.893 8.93991 121.865 8.8964 121.837 8.8526C121.865 8.8964 121.893 8.94006 121.922 8.98327ZM121.832 8.84446C121.805 8.80051 121.778 8.75627 121.753 8.71188C121.778 8.75627 121.805 8.80051 121.832 8.84446ZM121.749 8.70522C121.723 8.65994 121.698 8.61451 121.674 8.56878C121.698 8.61451 121.723 8.66008 121.749 8.70522ZM121.601 8.42244C121.578 8.37494 121.557 8.32728 121.536 8.27934C121.557 8.32728 121.578 8.37494 121.601 8.42244ZM121.536 8.27786C121.515 8.23021 121.496 8.18241 121.478 8.13447C121.496 8.18241 121.515 8.23036 121.536 8.27786ZM121.379 7.83349C121.365 7.78614 121.353 7.73863 121.342 7.69113C121.353 7.73878 121.366 7.78628 121.379 7.83349ZM121.341 7.68492C121.33 7.63727 121.319 7.58947 121.31 7.54138C121.319 7.58933 121.33 7.63727 121.341 7.68492ZM121.309 7.53369C121.3 7.48574 121.292 7.43765 121.285 7.38941C121.292 7.43765 121.3 7.48589 121.309 7.53369ZM121.284 7.38275C121.277 7.33421 121.272 7.28553 121.267 7.2367C121.271 7.28553 121.277 7.33421 121.284 7.38275ZM121.266 7.23019C121.262 7.18032 121.258 7.13015 121.256 7.07984C121.258 7.13 121.262 7.18017 121.266 7.23019ZM118.824 42.6567C118.84 42.5913 118.858 42.5264 118.878 42.4614C118.858 42.5262 118.84 42.5913 118.824 42.6567ZM118.879 42.4565C118.899 42.3914 118.919 42.3266 118.941 42.2622C118.919 42.3267 118.899 42.3915 118.879 42.4565ZM118.944 42.2536C118.966 42.1894 118.99 42.1253 119.014 42.0617C118.99 42.1253 118.966 42.1894 118.944 42.2536ZM119.097 41.8593C119.124 41.7965 119.152 41.7341 119.182 41.6718C119.152 41.7339 119.124 41.7965 119.097 41.8593ZM119.185 41.6657C119.214 41.6033 119.245 41.541 119.278 41.4791C119.246 41.5411 119.214 41.6033 119.185 41.6657ZM119.282 41.471C119.314 41.4096 119.347 41.3485 119.381 41.2878C119.347 41.3485 119.314 41.4096 119.282 41.471ZM119.497 41.0917C119.534 41.0315 119.572 40.9716 119.611 40.9121C119.572 40.9716 119.534 41.0315 119.497 41.0917ZM119.614 40.9073C119.654 40.8471 119.695 40.7875 119.737 40.728C119.695 40.7875 119.654 40.8471 119.614 40.9073ZM119.742 40.721C119.783 40.6623 119.826 40.6038 119.87 40.5458C119.826 40.6038 119.784 40.6623 119.742 40.721ZM119.874 40.5406C119.918 40.4823 119.963 40.4242 120.01 40.3666C119.963 40.4243 119.918 40.4822 119.874 40.5406ZM120.016 40.3585C120.063 40.3014 120.11 40.2447 120.158 40.1883C120.11 40.2447 120.063 40.3014 120.016 40.3585ZM120.318 40.0075C120.369 39.9516 120.42 39.8961 120.473 39.8409C120.42 39.8959 120.369 39.9516 120.318 40.0075Z" fill="#161616"/>
<path d="M19.8055 33.4528C17.7235 34.136 15.6154 34.4808 13.4943 34.4808C9.03739 34.4808 5.67358 33.2901 3.40288 30.9088C1.13217 28.5274 0 25.58 0 22.0731C0 18.5271 1.2362 15.4301 3.69557 12.782C6.16146 10.1275 9.58387 8.80664 13.9561 8.80664C15.5306 8.80664 17.0206 8.9888 18.4324 9.35963L17.9574 12.5217C15.8624 12.0142 14.1707 11.7606 12.8889 11.7606C9.81146 11.7606 7.45611 12.6909 5.82304 14.5518C4.18996 16.4126 3.37668 18.7224 3.37668 21.4811C3.37668 24.2529 4.31352 26.6797 6.18736 28.7619C8.06119 30.8505 10.7094 31.8915 14.1251 31.8915C14.7497 31.8915 15.6802 31.7939 16.9294 31.6051C16.7082 30.2843 16.6042 28.7424 16.6042 26.9921C16.6042 25.5151 16.513 24.0707 16.3374 22.6654H19.8052C19.701 24.3441 19.6556 26.1137 19.6556 27.981C19.6556 28.7813 19.7012 30.6032 19.8052 33.4529L19.8055 33.4528ZM43.5783 22.7758C43.5783 23.3093 43.5522 24.0511 43.5002 24.9881L30.4092 25.2158C30.5328 27.0701 31.2551 28.6252 32.5629 29.8809C33.8706 31.1301 35.6013 31.7547 37.768 31.7547C39.6939 31.7547 41.5091 31.5205 43.1943 31.052L42.8754 33.7391C41.6262 34.2336 39.8303 34.4809 37.4816 34.4809C34.1764 34.4809 31.6585 33.5766 29.9212 31.7743C28.184 29.9719 27.3187 27.7728 27.3187 25.1767C27.3187 22.4115 28.1125 20.0237 29.6935 18.0197C31.2746 16.0223 33.4022 15.0202 36.0698 15.0202C38.5227 15.0202 40.3835 15.7425 41.6652 17.1932C42.9405 18.6376 43.5781 20.5049 43.5781 22.7758H43.5783ZM40.3966 22.8149C40.3966 19.2429 38.9002 17.4602 35.9137 17.4602C32.8688 17.4602 31.0664 19.3145 30.5199 23.0231L40.3966 22.8149ZM62.5819 15.8595L61.7231 18.8914C60.7341 18.4945 59.8102 18.2994 58.9643 18.2994C56.5701 18.2994 55.0215 19.438 54.3122 21.7087C54.3122 27.558 54.3513 31.644 54.4229 33.9668H51.0526C51.2543 29.9394 51.3585 26.8098 51.3585 24.5912C51.3585 21.5788 51.0591 18.6899 50.4605 15.9311L53.7983 15.4561C54.0391 16.8551 54.1561 17.7919 54.1561 18.2604H54.3122C55.6852 16.237 57.2857 15.2285 59.1139 15.2285C60.0835 15.2285 61.235 15.4367 62.5818 15.8597L62.5819 15.8595ZM91.9373 22.9319C91.9373 20.8955 91.586 19.5551 90.8832 18.8979C90.174 18.2408 89.0159 17.9155 87.4022 17.9155C86.0425 17.9155 84.637 18.5857 83.1926 19.9196C83.1405 21.4681 83.1146 22.984 83.1146 24.474C83.1146 26.5951 83.1537 29.7572 83.2316 33.9668H79.7571C80.037 30.3427 80.1801 26.6667 80.1801 22.9319C80.1801 20.8955 79.8288 19.5551 79.1195 18.8979C78.4168 18.2408 77.2847 17.9155 75.7362 17.9155C74.1487 17.9155 72.6651 18.5857 71.2793 19.9196C71.2793 23.947 71.3053 28.6315 71.3507 33.9668H67.8829C68.1236 29.6465 68.2472 26.5171 68.2472 24.5912C68.2472 21.6503 67.9609 18.768 67.3884 15.9311L70.7457 15.4561L71.0839 17.7659H71.2791C72.9317 16.0742 74.7665 15.2284 76.7834 15.2284C79.7959 15.2284 81.7348 16.0742 82.6002 17.7659H82.8084C84.7277 16.0742 86.6212 15.2284 88.4885 15.2284C90.6226 15.2284 92.2362 15.6969 93.3293 16.6402C94.4224 17.5772 94.9689 19.2363 94.9689 21.6177C94.9689 21.8585 94.9558 22.3333 94.9298 23.0426C94.9038 23.7584 94.8972 24.2332 94.8972 24.474C94.8972 26.5951 94.9168 29.7572 94.9689 33.9668H91.501C91.7937 30.6356 91.937 26.9594 91.937 22.9319H91.9373ZM118.683 22.7758C118.683 23.3093 118.657 24.0511 118.605 24.9881L105.514 25.2158C105.638 27.0701 106.36 28.6252 107.668 29.8809C108.976 31.1301 110.706 31.7547 112.873 31.7547C114.799 31.7547 116.614 31.5205 118.299 31.052L117.981 33.7391C116.732 34.2336 114.936 34.4809 112.587 34.4809C109.282 34.4809 106.764 33.5766 105.027 31.7743C103.289 29.9719 102.424 27.7728 102.424 25.1767C102.424 22.4115 103.218 20.0237 104.799 18.0197C106.38 16.0223 108.508 15.0202 111.175 15.0202C113.628 15.0202 115.489 15.7425 116.771 17.1932C118.046 18.6376 118.683 20.5049 118.683 22.7758ZM115.502 22.8149C115.502 19.2429 114.005 17.4602 111.019 17.4602C107.974 17.4602 106.172 19.3145 105.625 23.0231L115.502 22.8149H115.502ZM138.279 28.8008C138.279 32.5094 135.911 34.3637 131.168 34.3702C129.073 34.3637 127.114 34.1555 125.299 33.7391L125.891 30.9349C127.544 31.5726 129.333 31.8913 131.265 31.8913C134.037 31.8913 135.423 31.1041 135.423 29.5229C135.423 28.7618 135.111 28.1567 134.499 27.7077C133.881 27.2522 132.86 26.7513 131.435 26.1918C129.632 25.4761 128.325 24.7929 127.511 24.1293C126.314 23.1533 125.716 21.9692 125.716 20.5834C125.716 19.139 126.262 17.8963 127.355 16.8618C128.448 15.8207 130.114 15.3067 132.352 15.3067C134.538 15.3067 136.288 15.4888 137.616 15.8597L137.024 18.6054C135.651 18.0589 134.063 17.7856 132.255 17.7856C129.815 17.7856 128.598 18.4882 128.598 19.9002C128.598 20.6094 128.871 21.1885 129.418 21.6244C129.964 22.0603 131.031 22.5939 132.619 23.2184C134.336 23.8886 135.605 24.5523 136.432 25.1964C137.661 26.2049 138.279 27.4021 138.279 28.801L138.279 28.8008Z" fill="#161616"/>
<path d="M81.6209 50.2302L81.5058 51.4843C80.9988 51.6687 80.5184 51.7609 80.0707 51.7641C78.9121 51.7609 78.122 51.4679 77.6975 50.8788C77.2728 50.293 77.0589 49.2395 77.0589 47.7221C77.0589 46.738 77.0655 45.4543 77.0786 43.8743C76.7198 43.8743 76.1899 43.894 75.4888 43.9335L75.548 42.5345C76.1569 42.5708 76.7034 42.5905 77.1873 42.5905C77.1873 42.2053 77.2168 41.2902 77.2827 39.8419L78.7968 39.6906C78.6882 41.0401 78.6321 42.0079 78.6321 42.5905C79.2608 42.5905 80.1891 42.5609 81.4102 42.495L81.3411 43.9335C80.1859 43.894 79.2542 43.8743 78.5563 43.8743C78.5432 44.8453 78.5367 45.9381 78.5367 47.1527C78.5367 48.4759 78.6749 49.3548 78.9547 49.7795C79.2345 50.2074 79.7546 50.4212 80.5117 50.4212C80.7619 50.4212 81.1338 50.3587 81.6209 50.2302ZM92.5981 45.8985C92.5981 46.1684 92.585 46.5437 92.5586 47.0176L85.9359 47.1328C85.9984 48.0709 86.3639 48.8576 87.0255 49.4928C87.6871 50.1247 88.5627 50.4408 89.6587 50.4408C90.633 50.4408 91.5514 50.3224 92.404 50.0853L92.2427 51.4448C91.6107 51.695 90.7023 51.8201 89.514 51.8201C87.8419 51.8201 86.5681 51.3625 85.6893 50.4507C84.8104 49.5389 84.3726 48.4264 84.3726 47.1129C84.3726 45.714 84.7742 44.506 85.574 43.4921C86.3738 42.4815 87.4502 41.9747 88.7997 41.9747C90.0407 41.9747 90.9821 42.3401 91.6305 43.0742C92.2757 43.8049 92.5981 44.7497 92.5981 45.8985ZM90.9885 45.9182C90.9885 44.1111 90.2314 43.2091 88.7206 43.2091C87.1801 43.2091 86.2683 44.1473 85.9917 46.0235L90.9885 45.9182ZM104.355 51.5599H102.091C102.091 51.336 101.469 50.477 100.221 48.9859C98.9407 47.4487 98.1375 46.6819 97.8084 46.6819H97.7426C97.7426 48.0578 97.7754 49.6839 97.8479 51.5599H96.1494C96.235 49.2065 96.2745 46.8102 96.2745 44.3646C96.2745 41.8794 96.1824 39.753 95.9947 37.9919L97.8478 37.8965C97.7754 39.2855 97.7424 41.9814 97.7424 45.9873H97.8083C98.0222 45.9873 98.6871 45.4442 99.8095 44.3611C100.932 43.2783 101.492 42.6232 101.492 42.3994H103.624C103.624 42.6036 103.118 43.1368 102.11 43.9992C101.166 44.8024 100.3 45.464 99.5167 45.9873V46.063C100.313 46.6687 101.34 47.7023 102.591 49.167C103.769 50.5495 104.355 51.3494 104.355 51.5599ZM113.127 48.9465C113.127 50.8227 111.929 51.7609 109.529 51.7641C108.469 51.7609 107.479 51.6555 106.56 51.4449L106.86 50.0263C107.696 50.3489 108.601 50.5102 109.579 50.5102C110.981 50.5102 111.682 50.1118 111.682 49.312C111.682 48.927 111.524 48.6208 111.215 48.3937C110.902 48.1633 110.385 47.9098 109.664 47.6267C108.752 47.2646 108.091 46.9191 107.68 46.5833C107.074 46.0895 106.771 45.4905 106.771 44.7894C106.771 44.0585 107.048 43.4299 107.6 42.9065C108.153 42.3799 108.996 42.1199 110.128 42.1199C111.234 42.1199 112.12 42.2121 112.791 42.3997L112.492 43.7888C111.797 43.5122 110.994 43.3741 110.079 43.3741C108.845 43.3741 108.229 43.7296 108.229 44.4439C108.229 44.8027 108.367 45.0956 108.644 45.3162C108.92 45.5367 109.46 45.8066 110.263 46.1227C111.132 46.4617 111.774 46.7974 112.192 47.1233C112.814 47.6335 113.127 48.2389 113.127 48.9465Z" fill="#161616"/>
</svg>
