<svg width="20" height="20" viewBox="0 0 20 20" fill="none" xmlns="http://www.w3.org/2000/svg">
<rect x="0.5" y="0.5" width="19" height="19" rx="9.5" stroke="white" stroke-opacity="0.8"/>
<path d="M8.79255 9.39596C9.22175 10.1507 9.8493 10.7783 10.604 11.2074L11.0094 10.6399C11.1442 10.4512 11.3987 10.3929 11.6021 10.5041C12.2469 10.8563 12.9595 11.0703 13.7028 11.1292C13.9412 11.1481 14.125 11.347 14.125 11.5861V13.6316C14.125 13.8665 13.9473 14.0634 13.7135 14.0875C13.4706 14.1124 13.2256 14.125 12.9792 14.125C9.05565 14.125 5.875 10.9444 5.875 7.02083C5.875 6.77437 5.88757 6.52937 5.91253 6.28647C5.93655 6.05272 6.13347 5.875 6.36846 5.875H8.4139C8.653 5.875 8.85193 6.05881 8.8708 6.29717C8.92964 7.04049 9.1437 7.75309 9.49592 8.39787C9.60707 8.60135 9.54877 8.85579 9.36012 8.99055L8.79255 9.39596ZM7.63695 9.09488L8.50776 8.47287C8.26084 7.93986 8.09163 7.37459 8.005 6.79167H6.79582C6.79306 6.8679 6.79167 6.94429 6.79167 7.02083C6.79167 10.4381 9.56193 13.2083 12.9792 13.2083C13.0557 13.2083 13.1321 13.207 13.2083 13.2042V11.995C12.6254 11.9084 12.0602 11.7391 11.5271 11.4922L10.9051 12.3631C10.6535 12.2653 10.4105 12.1503 10.1776 12.0195L10.1509 12.0043C9.25278 11.4936 8.50645 10.7472 7.99571 9.84907L7.98056 9.82244C7.84972 9.58952 7.73471 9.34651 7.63695 9.09488Z" fill="white" fill-opacity="0.8"/>
</svg>
