<svg width="60" height="60" viewBox="0 0 60 60" fill="none" xmlns="http://www.w3.org/2000/svg">
<path fill-rule="evenodd" clip-rule="evenodd" d="M9.2927 54.0755C6.29432 53.5678 4.00684 50.9552 4.00684 47.8125C4.00684 44.3065 6.85333 41.46 10.3593 41.46C13.8653 41.46 16.7118 44.3065 16.7118 47.8125C16.7118 50.9552 14.4243 53.5678 11.426 54.0755L10.3593 56.475L9.2927 54.0755Z" fill="#0062AD"/>
<path fill-rule="evenodd" clip-rule="evenodd" d="M49.1008 16.5755C46.1024 16.0678 43.8149 13.4552 43.8149 10.3125C43.8149 6.80646 46.6614 3.95996 50.1674 3.95996C53.6734 3.95996 56.5199 6.80646 56.5199 10.3125C56.5199 13.4552 54.2325 16.0678 51.2341 16.5755L50.1674 18.975L49.1008 16.5755Z" fill="#0062AD"/>
<path fill-rule="evenodd" clip-rule="evenodd" d="M8.40678 55.1628L9.21585 56.9836C9.41682 57.4352 9.86497 57.7269 10.3593 57.7269C10.8537 57.7269 11.3018 57.4352 11.5028 56.9836L12.3118 55.1628C15.5632 54.3006 17.9633 51.3351 17.9633 47.8129C17.9633 43.6162 14.556 40.209 10.3593 40.209C6.16262 40.209 2.75537 43.6162 2.75537 47.8129C2.75537 51.3345 5.15545 54.3 8.40678 55.1628ZM10.3593 53.4222C10.1722 53.1161 9.86036 52.903 9.50173 52.8424C7.09356 52.4347 5.25825 50.3366 5.25825 47.8129C5.25825 44.9976 7.544 42.7119 10.3593 42.7119C13.1746 42.7119 15.4604 44.9976 15.4604 47.8129C15.4604 50.3366 13.6251 52.4347 11.2169 52.8424C10.8583 52.903 10.5464 53.1161 10.3593 53.4222Z" fill="#0062AD"/>
<path fill-rule="evenodd" clip-rule="evenodd" d="M50.1674 15.9222C49.9803 15.6161 49.6685 15.403 49.3098 15.3424C46.9017 14.9347 45.0664 12.8366 45.0664 10.3129C45.0664 7.4976 47.3521 5.21185 50.1674 5.21185C50.7605 5.21185 51.3299 5.31292 51.8601 5.49946C52.5115 5.72872 53.2264 5.38626 53.4557 4.73484C53.685 4.08342 53.3425 3.36847 52.6911 3.13863C51.9011 2.86085 51.0516 2.70898 50.1674 2.70898C45.9707 2.70898 42.5635 6.11622 42.5635 10.3129C42.5635 13.8351 44.9641 16.8006 48.2155 17.6634L49.024 19.4836C49.2249 19.9352 49.6731 20.2269 50.1674 20.2269C50.6618 20.2269 51.1099 19.9352 51.3109 19.4836L52.12 17.6628C55.3713 16.8006 57.7714 13.8351 57.7714 10.3129C57.7714 8.76175 57.3059 7.31915 56.5072 6.11564C56.1255 5.54045 55.3482 5.3828 54.773 5.7651C54.1978 6.14683 54.0401 6.92356 54.4219 7.49933C54.9572 8.3061 55.2685 9.27341 55.2685 10.3129C55.2685 12.8366 53.4332 14.9347 51.025 15.3424C50.6664 15.403 50.3545 15.6161 50.1674 15.9222Z" fill="#0062AD"/>
<path fill-rule="evenodd" clip-rule="evenodd" d="M19.1643 57.5288H21.6655C22.3559 57.5288 22.9162 56.9685 22.9162 56.2782C22.9162 55.5878 22.3559 55.0275 21.6655 55.0275H19.1643C18.4739 55.0275 17.9137 55.5878 17.9137 56.2782C17.9137 56.9685 18.4739 57.5288 19.1643 57.5288ZM29.1693 57.5288H38.549C45.111 57.5288 50.4299 52.2099 50.4299 45.6479C50.4299 42.4963 49.1781 39.4748 46.9507 37.2462C44.7221 35.0188 41.7006 33.7669 38.549 33.7669C32.5935 33.7669 25.2836 33.7669 19.7896 33.7669C17.9649 33.7669 16.2153 33.0428 14.9259 31.7522C13.6353 30.4628 12.9112 28.7131 12.9112 26.8885C12.9112 25.0638 13.6353 23.3142 14.9259 22.0248C16.2153 20.7342 17.9649 20.01 19.7896 20.01H21.6655C22.3559 20.01 22.9162 19.4498 22.9162 18.7594C22.9162 18.0691 22.3559 17.5088 21.6655 17.5088H19.7896C17.3021 17.5088 14.9159 18.4968 13.1576 20.2564C11.3979 22.0148 10.4099 24.401 10.4099 26.8885C10.4099 29.376 11.3979 31.7622 13.1576 33.5205C14.9159 35.2802 17.3021 36.2682 19.7896 36.2682H38.549C41.0365 36.2682 43.4226 37.2562 45.181 39.0158C46.9406 40.7742 47.9287 43.1604 47.9287 45.6479C47.9287 50.8279 43.7291 55.0275 38.549 55.0275H29.1693C28.4789 55.0275 27.9187 55.5878 27.9187 56.2782C27.9187 56.9685 28.4789 57.5288 29.1693 57.5288ZM25.4174 20.01H41.6755C42.3659 20.01 42.9262 19.4498 42.9262 18.7594C42.9262 18.0691 42.3659 17.5088 41.6755 17.5088H25.4174C24.7271 17.5088 24.1668 18.0691 24.1668 18.7594C24.1668 19.4498 24.7271 20.01 25.4174 20.01Z" fill="#0062AD"/>
<path d="M25.0067 57.5246C25.6974 57.5246 26.2574 56.9647 26.2574 56.274C26.2574 55.5833 25.6974 55.0234 25.0067 55.0234C24.316 55.0234 23.7561 55.5833 23.7561 56.274C23.7561 56.9647 24.316 57.5246 25.0067 57.5246Z" fill="#0062AD"/>
</svg>
