<svg width="24" height="24" viewBox="0 0 24 24" fill="none" xmlns="http://www.w3.org/2000/svg">
<rect x="0.5" y="0.5" width="23" height="23" rx="11.5" stroke="white" stroke-opacity="0.8"/>
<path d="M14.5471 9.57297C14.8437 9.46537 14.9909 9.42665 15.0724 9.4128C15.073 9.43887 15.0724 9.46001 15.0711 9.47388C14.9548 10.6958 14.4453 13.7022 14.1836 15.1011C14.1223 15.4287 14.0753 15.5846 13.7589 15.3988C13.5507 15.2764 13.3622 15.1224 13.1603 14.99C12.498 14.5558 11.55 13.9092 11.6278 13.9481C10.9758 13.5184 11.2487 13.2553 11.6127 12.9044C11.6717 12.8476 11.733 12.7885 11.7931 12.726C11.82 12.6981 11.9513 12.576 12.1365 12.4038C12.7306 11.8515 13.8785 10.7843 13.9075 10.6608C13.9123 10.6405 13.9167 10.565 13.8718 10.5251C13.8269 10.4852 13.7607 10.4989 13.7129 10.5097C13.6452 10.5251 12.5663 11.2382 10.4762 12.6491C10.17 12.8594 9.89258 12.9619 9.64405 12.9565L9.64628 12.9576C9.3189 12.8421 8.99245 12.7427 8.66427 12.6428C8.44868 12.5771 8.23234 12.5112 8.01452 12.4404C7.96124 12.4231 7.90926 12.4066 7.86041 12.3913C10.1239 11.4052 11.6315 10.756 12.3869 10.4418C13.4842 9.98538 14.135 9.72251 14.5471 9.57297ZM15.7584 8.60879C15.6317 8.50598 15.4925 8.45879 15.3957 8.43568C15.2958 8.41182 15.2009 8.40414 15.1289 8.40541C14.8907 8.4096 14.6348 8.47735 14.206 8.63294C13.7686 8.79167 13.0965 9.06357 12.0029 9.51844C11.2319 9.83913 9.69694 10.5003 7.40182 11.5003C7.20023 11.5809 7.01543 11.6723 6.86942 11.7807C6.73459 11.8809 6.54586 12.06 6.51134 12.3355C6.48526 12.5435 6.54591 12.7355 6.66891 12.8867C6.77599 13.0183 6.91317 13.0982 7.01764 13.1488C7.17272 13.2239 7.38138 13.2893 7.56476 13.3468C7.85132 13.4366 8.13722 13.5284 8.42439 13.6163C9.31345 13.8884 10.0453 14.1124 10.8506 14.6431C11.4412 15.0323 12.0205 15.4385 12.6121 15.8263C12.8279 15.9678 13.0296 16.1301 13.2524 16.261C13.4958 16.404 13.8052 16.5344 14.1818 16.4997C14.7509 16.4473 15.047 15.9237 15.1665 15.2849C15.4276 13.8896 15.9454 10.8415 16.0666 9.56863C16.0824 9.40248 16.0639 9.21626 16.0485 9.12635C16.0326 9.03376 15.9842 8.792 15.7584 8.60879Z" fill="white" fill-opacity="0.8"/>
</svg>
