<svg width="45" height="45" viewBox="0 0 45 45" fill="none" xmlns="http://www.w3.org/2000/svg">
<path d="M19.7269 4.92C20.0783 4.53391 20.5065 4.22547 20.984 4.01441C21.4616 3.80335 21.9779 3.69434 22.5 3.69434C23.0221 3.69434 23.5384 3.80335 24.016 4.01441C24.4935 4.22547 24.9217 4.53391 25.2731 4.92L27.1856 7.02C27.557 7.42765 28.0136 7.7484 28.5231 7.95938C29.0326 8.17036 29.5823 8.26639 30.1331 8.24062L32.97 8.10937C33.4913 8.08481 34.012 8.16933 34.4988 8.35753C34.9855 8.54572 35.4277 8.83345 35.7969 9.2023C36.1661 9.57115 36.4542 10.013 36.6429 10.4996C36.8315 10.9862 36.9166 11.5068 36.8925 12.0281L36.7594 14.8669C36.7336 15.4177 36.8296 15.9674 37.0406 16.4769C37.2516 16.9864 37.5723 17.443 37.98 17.8144L40.08 19.7269C40.4661 20.0783 40.7745 20.5065 40.9856 20.984C41.1966 21.4616 41.3057 21.9779 41.3057 22.5C41.3057 23.0221 41.1966 23.5384 40.9856 24.016C40.7745 24.4935 40.4661 24.9217 40.08 25.2731L37.98 27.1856C37.5723 27.557 37.2516 28.0136 37.0406 28.5231C36.8296 29.0326 36.7336 29.5823 36.7594 30.1331L36.8906 32.97C36.9152 33.4913 36.8307 34.012 36.6425 34.4988C36.4543 34.9855 36.1665 35.4277 35.7977 35.7969C35.4288 36.1661 34.987 36.4542 34.5004 36.6429C34.0138 36.8315 33.4932 36.9166 32.9719 36.8925L30.1331 36.7594C29.5823 36.7336 29.0326 36.8296 28.5231 37.0406C28.0136 37.2516 27.557 37.5723 27.1856 37.98L25.2731 40.08C24.9217 40.4661 24.4935 40.7745 24.016 40.9856C23.5384 41.1966 23.0221 41.3057 22.5 41.3057C21.9779 41.3057 21.4616 41.1966 20.984 40.9856C20.5065 40.7745 20.0783 40.4661 19.7269 40.08L17.8144 37.98C17.443 37.5723 16.9864 37.2516 16.4769 37.0406C15.9674 36.8296 15.4177 36.7336 14.8669 36.7594L12.03 36.8906C11.5087 36.9152 10.988 36.8307 10.5012 36.6425C10.0145 36.4543 9.57233 36.1665 9.20313 35.7977C8.83392 35.4288 8.54578 34.987 8.35711 34.5004C8.16845 34.0138 8.08344 33.4932 8.1075 32.9719L8.24062 30.1331C8.26639 29.5823 8.17036 29.0326 7.95938 28.5231C7.7484 28.0136 7.42765 27.557 7.02 27.1856L4.92 25.2731C4.53391 24.9217 4.22547 24.4935 4.01441 24.016C3.80335 23.5384 3.69434 23.0221 3.69434 22.5C3.69434 21.9779 3.80335 21.4616 4.01441 20.984C4.22547 20.5065 4.53391 20.0783 4.92 19.7269L7.02 17.8144C7.42765 17.443 7.7484 16.9864 7.95938 16.4769C8.17036 15.9674 8.26639 15.4177 8.24062 14.8669L8.10937 12.03C8.08481 11.5087 8.16933 10.988 8.35753 10.5012C8.54572 10.0145 8.83345 9.57233 9.2023 9.20313C9.57115 8.83392 10.013 8.54578 10.4996 8.35711C10.9862 8.16845 11.5068 8.08344 12.0281 8.1075L14.8669 8.24062C15.4177 8.26639 15.9674 8.17036 16.4769 7.95938C16.9864 7.7484 17.443 7.42765 17.8144 7.02L19.7269 4.92Z" stroke="black" stroke-opacity="0.8" stroke-width="2"/>
<path d="M16.875 22.5L20.625 26.25L28.125 18.75" stroke="#0062AD" stroke-width="2" stroke-linecap="round" stroke-linejoin="round"/>
</svg>
